<svg width="32" height="29" viewBox="0 0 32 29" fill="none" xmlns="http://www.w3.org/2000/svg">
<g clip-path="url(#clip0_200_7141)">
<path d="M15.1775 17.316C13.3941 15.1723 9.33301 9.85117 9.33301 6.86523C9.33301 3.24109 12.3163 0.302734 15.9997 0.302734C19.683 0.302734 22.6663 3.24109 22.6663 6.86523C22.6663 9.85117 18.6052 15.1723 16.8219 17.316C16.3941 17.8902 15.6052 17.8902 15.1775 17.316ZM15.9997 8.61524C17.2275 8.61524 18.2219 7.63633 18.2219 6.42773C18.2219 5.21969 17.2275 4.24023 15.9997 4.24023C14.7719 4.24023 13.7775 5.21969 13.7775 6.42773C13.7775 7.63633 14.7719 8.61524 15.9997 8.61524Z" fill="white"/>
<path opacity="0.4" d="M23.1111 27.8106V11.2621C23.3056 10.8848 23.4833 10.5129 23.6444 10.141C23.6722 10.0699 23.7 10.0043 23.7278 9.93322L30.1722 7.39572C31.05 7.05119 32 7.68557 32 8.61525V23.4246C32 23.9606 31.6667 24.4418 31.1611 24.6442L23.1111 27.8106ZM0.838333 10.5457L7.64444 7.86603C7.77778 8.6426 8.05 9.41369 8.35556 10.141C8.51667 10.5129 8.69444 10.8848 8.88889 11.2621V25.0106L1.82833 27.7942C0.952778 28.0895 0 27.5043 0 26.5746V11.7653C0 11.2293 0.331944 10.6988 0.838333 10.5457ZM21.3333 27.8817L10.6167 24.8793V14.2481C11.8056 15.9598 13.0167 17.5074 13.7889 18.4098C14.9278 19.859 17.0722 19.859 18.2111 18.4098C18.9833 17.5074 20.1944 15.9598 21.3333 14.2481V27.8817Z" fill="white"/>
</g>
<defs>
<clipPath id="clip0_200_7141">
<rect width="32" height="28" fill="white" transform="translate(0 0.302734)"/>
</clipPath>
</defs>
</svg>
